# xmcd
# 
# Track frame offsets:
#     150
#     24548
#     43041
#     72704
#     96358
#     114533
#     145318
#     167476
#     192463
# 
# Disc length: 2845
# 
# Revision: 1
# Processed by: cddbd v1.5.2PL0 Copyright (c) Steve Scherf et al.
# Submitted via: fre:ac v1.0.31
# 
DISCID=840b1b09
DTITLE=Gregg Allman - Back to Macon,Ga (Limited Edition) Disc 1
DYEAR=2015
DGENRE=Rock/Pop
TTITLE0=Statesboro Blues
TTITLE1=I'm No Angel
TTITLE2=Queen Of Hearts
TTITLE3=I Can't Be Satisfied
TTITLE4=These Days
TTITLE5=Ain't Wastin' Time No More
TTITLE6=Brightest Smile In Town
TTITLE7=Hot 'Lanta
TTITLE8=I've Found A Love
EXTD=
EXTT0=
EXTT1=
EXTT2=
EXTT3=
EXTT4=
EXTT5=
EXTT6=
EXTT7=
EXTT8=
PLAYORDER=
